<svg width="15" height="16" viewBox="0 0 15 16" fill="none" xmlns="http://www.w3.org/2000/svg">
<path d="M3.66993 1.47524C3.15383 1.5889 2.69303 1.95447 2.44419 2.44599C2.2353 2.86686 2.24451 2.52279 2.25373 8.05549L2.26294 13.0567L2.33053 13.2564C2.53328 13.8493 3.00023 14.3101 3.58391 14.4944L3.79895 14.562H7.50073H11.2025L11.4483 14.4791C12.0442 14.2763 12.4313 13.8923 12.674 13.2564C12.7385 13.0874 12.7385 13.069 12.7477 9.50855C12.7539 6.90656 12.7477 5.8805 12.7231 5.74534C12.6801 5.53337 12.5542 5.24153 12.4159 5.03877C12.3299 4.91282 9.59584 2.09271 9.36237 1.88996C9.19033 1.73943 8.963 1.61348 8.71417 1.52746L8.46841 1.44452L6.1644 1.43837C4.30583 1.4353 3.82353 1.44145 3.66993 1.47524ZM7.66047 6.80518C7.80178 6.84512 7.98303 7.04173 8.01068 7.18918C8.05369 7.41651 7.97996 7.6039 7.79564 7.73907C7.71577 7.80051 7.66661 7.80358 6.58527 7.8128C5.96472 7.81894 5.41176 7.8128 5.35646 7.80358C5.21515 7.77901 5.02776 7.58547 4.98475 7.42573C4.91716 7.18304 5.03697 6.94035 5.27044 6.83283C5.38411 6.7806 5.49163 6.77446 6.4716 6.77446C7.10444 6.77446 7.59289 6.78675 7.66047 6.80518ZM9.73715 9.52084C10.1857 9.75738 10.1058 10.3841 9.61427 10.4916C9.49753 10.5162 8.8647 10.5223 7.40857 10.5162C5.4732 10.507 5.35953 10.5039 5.24894 10.4486C4.89873 10.2766 4.86801 9.7666 5.19672 9.54849L5.29809 9.47783H7.47615C9.29171 9.47783 9.66649 9.48397 9.73715 9.52084Z" fill="#FCFCFC"/>
</svg>
