<svg width="38" height="42" viewBox="0 0 38 42" fill="none" xmlns="http://www.w3.org/2000/svg">
<path d="M18.2863 0.439697L18.3249 17.6895V21.4126L18.2734 40.5884C18.2714 40.7149 18.3117 40.8384 18.3879 40.9393C18.4641 41.0401 18.5719 41.1127 18.6941 41.1452C18.8163 41.1778 18.9459 41.1686 19.0622 41.1191C19.1786 41.0695 19.275 40.9825 19.3362 40.8718L37.4621 12.807L18.2863 0.439697Z" fill="url(#paint0_linear_2014_228)"/>
<path d="M18.2862 0.439697L0.102391 28.5689C0.0303009 28.6704 -0.00552373 28.7932 0.000691503 28.9175C0.00690674 29.0418 0.0548005 29.1603 0.136651 29.2541C0.218502 29.3479 0.32954 29.4113 0.451867 29.4342C0.574193 29.4572 0.700679 29.4383 0.810935 29.3805L14.853 23.0423L18.2733 21.5028L18.2862 0.439697Z" fill="url(#paint1_linear_2014_228)"/>
<path d="M0.0252507 29.0391C0.00186761 28.96 -0.00332691 28.8766 0.010058 28.7952C0.023443 28.7138 0.0550605 28.6364 0.102546 28.5689L18.2864 0.439697V1.1418L0.102546 29.2324C0.0620636 29.1749 0.0355939 29.1087 0.0252507 29.0391Z" fill="url(#paint2_linear_2014_228)"/>
<path d="M18.6342 41.1388C18.528 41.0995 18.4358 41.0295 18.3693 40.9379C18.3028 40.8462 18.265 40.7369 18.2606 40.6237L18.2823 0.440186L18.6857 0.723251L18.7824 41.1646C18.7321 41.1618 18.6824 41.1532 18.6342 41.1388Z" fill="url(#paint3_linear_2014_228)"/>
<defs>
<linearGradient id="paint0_linear_2014_228" x1="31.0108" y1="33.5886" x2="17.2732" y2="3.61392" gradientUnits="userSpaceOnUse">
<stop stop-color="#6BFFFE"/>
<stop offset="0.29" stop-color="#64F5FE"/>
<stop offset="0.42" stop-color="#3EBAFB"/>
<stop offset="0.5" stop-color="#145CEF"/>
</linearGradient>
<linearGradient id="paint1_linear_2014_228" x1="-5.38136" y1="22.2508" x2="16.6238" y2="21.752" gradientUnits="userSpaceOnUse">
<stop stop-color="#F47616"/>
<stop offset="0.13" stop-color="#F47216"/>
<stop offset="0.26" stop-color="#F46716"/>
<stop offset="0.28" stop-color="#F46516"/>
<stop offset="0.45" stop-color="#F26216"/>
<stop offset="0.57" stop-color="#EA5916"/>
<stop offset="0.67" stop-color="#DE4A16"/>
<stop offset="0.75" stop-color="#D03916"/>
</linearGradient>
<linearGradient id="paint2_linear_2014_228" x1="0.738751" y1="14.4124" x2="17.5675" y2="15.2678" gradientUnits="userSpaceOnUse">
<stop stop-color="#F47616"/>
<stop offset="0.23" stop-color="#F4DBA9"/>
<stop offset="0.65" stop-color="#F2E4C7"/>
<stop offset="1" stop-color="#D23B16"/>
</linearGradient>
<linearGradient id="paint3_linear_2014_228" x1="17.2567" y1="20.739" x2="19.7913" y2="20.8679" gradientUnits="userSpaceOnUse">
<stop stop-color="#1A5EF0"/>
<stop offset="0.23" stop-color="#125EF1"/>
<stop offset="0.99" stop-color="#69FCFE"/>
</linearGradient>
</defs>
</svg>
