<svg width="117" height="20" viewBox="0 0 117 20" fill="none" xmlns="http://www.w3.org/2000/svg">
<path d="M0.685333 19.5821V0.912598H6.8483L11.2448 17.3995H11.6688V0.912598H14.8091V19.5821H8.70896L4.3046 3.09515H3.8571V19.5821H0.685333Z" fill="#FCFCFC"/>
<path d="M24.8427 19.9518C23.6188 19.9803 22.4064 19.7108 21.3098 19.1667C20.2856 18.6309 19.4358 17.8137 18.8603 16.8114C18.2388 15.7115 17.9293 14.4628 17.9653 13.2V12.7917C17.9304 11.524 18.2397 10.2706 18.8603 9.16462C19.4312 8.1587 20.2822 7.34042 21.3098 6.80934C22.4076 6.26872 23.6192 5.99949 24.8427 6.02426C26.0638 5.99766 27.2733 6.26703 28.3677 6.80934C29.3908 7.34102 30.2366 8.15953 30.8015 9.16462C31.422 10.2706 31.7313 11.524 31.6965 12.7917V13.2157C31.7324 14.4785 31.423 15.7272 30.8015 16.8271C30.2319 17.8286 29.3873 18.6459 28.3677 19.1824C27.2731 19.7226 26.0629 19.9867 24.8427 19.9518ZM24.8427 17.2354C25.3507 17.2542 25.8571 17.1677 26.33 16.9812C26.8029 16.7948 27.2321 16.5124 27.5905 16.1519C27.9628 15.746 28.2493 15.269 28.4328 14.7496C28.6163 14.2302 28.6929 13.6791 28.6582 13.1293V12.8624C28.6922 12.3115 28.6152 11.7594 28.4318 11.2388C28.2484 10.7183 27.9623 10.2399 27.5905 9.83195C26.8439 9.13774 25.8622 8.75186 24.8427 8.75186C23.8232 8.75186 22.8415 9.13774 22.0948 9.83195C21.723 10.2399 21.4369 10.7183 21.2535 11.2388C21.0701 11.7594 20.9931 12.3115 21.0271 12.8624V13.1293C20.9924 13.6791 21.0691 14.2302 21.2525 14.7496C21.436 15.269 21.7225 15.746 22.0948 16.1519C22.453 16.5128 22.8821 16.7954 23.3551 16.9819C23.8281 17.1684 24.3346 17.2547 24.8427 17.2354Z" fill="#FCFCFC"/>
<path d="M34.9546 19.5818V6.40792H37.9615V7.931H38.4168C38.5773 7.41692 38.9323 6.98588 39.4061 6.72981C39.9152 6.46764 40.4822 6.33803 41.0547 6.35297H42.6249V9.07723H40.9998C40.2182 9.04254 39.4507 9.29373 38.8408 9.78381C38.5511 10.0611 38.3269 10.3995 38.1843 10.7743C38.0417 11.1491 37.9844 11.5509 38.0164 11.9507V19.5818H34.9546Z" fill="#FCFCFC"/>
<path d="M50.2795 19.9511C49.2332 19.9573 48.2039 19.6864 47.2962 19.166C46.3536 18.6229 45.5855 17.8222 45.0822 16.8578C44.5191 15.7258 44.2491 14.4705 44.2971 13.2071V12.791C44.2492 11.5251 44.5191 10.2673 45.0822 9.1325C45.5821 8.17286 46.3445 7.37509 47.2805 6.83219C48.1928 6.30907 49.2279 6.03811 50.2795 6.04709C50.9847 6.03132 51.6877 6.13213 52.36 6.34543C52.8627 6.50097 53.3296 6.75445 53.7339 7.09126C54.0524 7.37164 54.3183 7.70664 54.519 8.08048H54.9665V0.912598H58.0127V19.5821H55.0529V17.847H54.5975C54.236 18.432 53.7477 18.9284 53.1687 19.2994C52.2887 19.791 51.2853 20.0173 50.2795 19.9511ZM51.1902 17.2896C51.6977 17.3043 52.2029 17.2158 52.6752 17.0296C53.1475 16.8434 53.5771 16.5632 53.938 16.2062C54.3181 15.7933 54.6107 15.3078 54.7982 14.7789C54.9857 14.25 55.0643 13.6887 55.0293 13.1286V12.8617C55.0695 12.3001 54.9949 11.7362 54.81 11.2043C54.625 10.6725 54.3337 10.1839 53.9538 9.76843C53.5911 9.41246 53.1598 9.13417 52.6859 8.95059C52.2121 8.767 51.7059 8.68198 51.1981 8.7007C50.6934 8.68815 50.1913 8.77608 49.7209 8.95938C49.2505 9.14268 48.8212 9.4177 48.4581 9.76843C48.0698 10.1795 47.7709 10.6666 47.5804 11.199C47.3899 11.7314 47.3118 12.2976 47.3511 12.8617V13.1286C47.315 13.6901 47.3946 14.253 47.585 14.7824C47.7754 15.3118 48.0726 15.7964 48.4581 16.2062C48.8185 16.5595 49.2458 16.8373 49.7149 17.0233C50.1841 17.2094 50.6856 17.2999 51.1902 17.2896Z" fill="#FCFCFC"/>
<path d="M68.0854 19.9509C66.8823 19.973 65.6918 19.7036 64.6153 19.1658C63.5987 18.6432 62.7539 17.8393 62.1815 16.8498C61.5591 15.736 61.2498 14.4745 61.2865 13.1991V12.7909C61.2498 11.5155 61.5591 10.254 62.1815 9.1402C62.7486 8.13679 63.5939 7.31883 64.6153 6.78493C65.6918 6.24714 66.8823 5.97778 68.0854 5.99984C69.203 5.97194 70.3121 6.20021 71.3279 6.66717C72.192 7.08578 72.937 7.71479 73.4947 8.49643C74.05 9.26663 74.4158 10.157 74.5624 11.0951L71.6026 11.7075C71.5396 11.176 71.3687 10.663 71.1002 10.2001C70.8267 9.74384 70.4328 9.37172 69.9618 9.12451C69.406 8.84121 68.7874 8.70345 68.1639 8.72411C67.4839 8.71326 66.8119 8.87249 66.2091 9.18731C65.6212 9.50567 65.1446 9.99598 64.843 10.5926C64.4992 11.2871 64.332 12.0556 64.3562 12.8301V13.0971C64.331 13.8666 64.4983 14.6303 64.843 15.3189C65.1513 15.9107 65.6262 16.3993 66.2091 16.7242C66.8093 17.0477 67.4822 17.2125 68.1639 17.2031C68.6101 17.2351 69.0582 17.1772 69.4816 17.0329C69.9051 16.8886 70.2953 16.6608 70.6291 16.363C71.207 15.7719 71.5764 15.0084 71.6811 14.1883L74.6409 14.8792C74.4374 15.7944 74.0471 16.6576 73.4947 17.4151C72.9304 18.1905 72.187 18.8181 71.3279 19.2443C70.3166 19.7286 69.2064 19.9705 68.0854 19.9509Z" fill="#FCFCFC"/>
<path d="M83.8736 19.9518C82.6497 19.9803 81.4373 19.7108 80.3407 19.1667C79.3165 18.6309 78.4667 17.8137 77.8912 16.8114C77.2697 15.7115 76.9603 14.4628 76.9962 13.2V12.7917C76.9614 11.524 77.2706 10.2706 77.8912 9.16462C78.4621 8.1587 79.3131 7.34042 80.3407 6.80934C81.4385 6.26872 82.6501 5.99949 83.8736 6.02426C85.0947 5.99766 86.3042 6.26703 87.3986 6.80934C88.4217 7.34102 89.2675 8.15953 89.8324 9.16462C90.453 10.2706 90.7622 11.524 90.7274 12.7917V13.2157C90.7633 14.4785 90.4539 15.7272 89.8324 16.8271C89.2628 17.8286 88.4183 18.6459 87.3986 19.1824C86.304 19.7226 85.0938 19.9867 83.8736 19.9518ZM83.8736 17.2354C84.3816 17.2542 84.888 17.1677 85.3609 16.9812C85.8338 16.7948 86.263 16.5124 86.6214 16.1519C86.9979 15.7479 87.2887 15.2718 87.4763 14.7523C87.6639 14.2328 87.7443 13.6807 87.7127 13.1293V12.8624C87.7467 12.3115 87.6697 11.7594 87.4863 11.2388C87.3028 10.7183 87.0168 10.2399 86.6449 9.83195C85.8983 9.13774 84.9166 8.75186 83.8971 8.75186C82.8776 8.75186 81.8959 9.13774 81.1493 9.83195C80.7775 10.2399 80.4914 10.7183 80.308 11.2388C80.1246 11.7594 80.0476 12.3115 80.0816 12.8624V13.1293C80.0469 13.6791 80.1235 14.2302 80.307 14.7496C80.4905 15.269 80.777 15.746 81.1493 16.1519C81.5047 16.5098 81.93 16.7907 82.3987 16.9771C82.8674 17.1635 83.3694 17.2514 83.8736 17.2354Z" fill="#FCFCFC"/>
<path d="M93.9934 19.5818V6.40792H97.0003V7.931H97.4557C97.6161 7.41692 97.9711 6.98588 98.4449 6.72981C98.954 6.46764 99.5211 6.33803 100.094 6.35297H101.664V9.07723H100.015C99.2309 9.04134 98.4605 9.29255 97.8482 9.78381C97.5586 10.0611 97.3343 10.3995 97.1917 10.7743C97.0491 11.1491 96.9918 11.5509 97.0239 11.9507V19.5818H93.9934Z" fill="#FCFCFC"/>
<path d="M109.954 19.951C108.742 19.9791 107.543 19.6895 106.476 19.111C105.481 18.5693 104.663 17.7514 104.121 16.7557C103.538 15.6516 103.249 14.4161 103.281 13.1679V12.846C103.237 11.6005 103.507 10.3641 104.066 9.25025C104.609 8.25537 105.427 7.43774 106.422 6.89498C107.475 6.32006 108.66 6.03047 109.86 6.05493C111.035 6.03018 112.195 6.32022 113.22 6.89498C114.174 7.45303 114.949 8.26962 115.458 9.25025C116.006 10.351 116.276 11.5696 116.243 12.7989V13.8901H106.351C106.349 14.3571 106.445 14.8193 106.633 15.2467C106.821 15.6741 107.096 16.0572 107.442 16.371C108.145 16.9968 109.061 17.331 110.002 17.3053C110.796 17.37 111.586 17.1347 112.215 16.6458C112.691 16.2306 113.074 15.7196 113.338 15.1463L115.874 16.4495C115.575 17.0133 115.212 17.5402 114.791 18.0197C114.265 18.6025 113.627 19.0725 112.914 19.4015C111.982 19.8069 110.97 19.9949 109.954 19.951ZM106.406 11.5506H113.15C113.132 11.1557 113.035 10.7685 112.863 10.4123C112.692 10.0561 112.45 9.73822 112.153 9.47793C111.507 8.93918 110.685 8.65939 109.845 8.69283C109.014 8.63073 108.192 8.89295 107.55 9.42438C106.909 9.95582 106.499 10.7151 106.406 11.5427V11.5506Z" fill="#FCFCFC"/>
</svg>
