<svg width="113" height="43" viewBox="0 0 113 43" fill="none" xmlns="http://www.w3.org/2000/svg">
<path d="M0.828979 13.7428V13.0987H3.65672V13.7428C3.65672 16.3838 5.34434 17.6527 7.95951 17.6527C10.5747 17.6527 11.9467 16.4095 11.9467 14.6704C11.9467 12.9312 10.4652 12.2936 8.03681 11.7396L7.05773 11.5013C3.49568 10.6832 1.26055 9.41429 1.26055 6.16787C1.26055 2.92144 3.83707 0.9375 7.65033 0.9375C11.4636 0.9375 14.3557 2.92143 14.3557 6.7991V7.75242H11.528V6.7991C11.528 4.42226 9.96921 3.44963 7.66321 3.44963C5.35722 3.44963 4.09473 4.42225 4.09473 6.09055C4.09473 7.75885 5.3379 8.43521 7.68898 8.96339L8.66162 9.20172C12.2301 9.994 14.7873 11.2887 14.7873 14.6124C14.7873 17.9361 12.1206 20.1584 7.97884 20.1584C3.83707 20.1584 0.828979 17.891 0.828979 13.7428Z" fill="#FCFCFC"/>
<path d="M17.0677 6.77319H19.786L21.4221 17.9682H21.8472L24.1145 6.77319H28.5269L30.7684 17.9682H31.1936L32.8296 6.77319H35.5479L33.3321 19.7911H28.7909L26.5172 8.65407H26.0985L23.8505 19.8233H19.2836L17.0677 6.77319Z" fill="#FCFCFC"/>
<path d="M38.2724 3.1597C38.2673 2.78792 38.3728 2.42301 38.5757 2.1114C38.7785 1.79978 39.0694 1.55554 39.4114 1.40971C39.7535 1.26388 40.1311 1.22306 40.4964 1.29245C40.8617 1.36184 41.1981 1.53829 41.4628 1.79938C41.7275 2.06046 41.9086 2.39439 41.9831 2.75867C42.0575 3.12296 42.0219 3.50116 41.8809 3.84517C41.7398 4.18918 41.4996 4.48345 41.1908 4.69058C40.882 4.8977 40.5186 5.00832 40.1468 5.00836C39.8995 5.02105 39.6522 4.98212 39.4208 4.89405C39.1894 4.80598 38.9788 4.6707 38.8025 4.49681C38.6262 4.32293 38.488 4.11424 38.3967 3.88404C38.3054 3.65384 38.2631 3.40716 38.2724 3.1597ZM38.7748 6.77327H41.493V19.7912H38.7748V6.77327Z" fill="#FCFCFC"/>
<path d="M47.8829 9.07281H44.2371V6.77326H47.8829V3.92621C47.8547 3.57562 47.903 3.2231 48.0245 2.89302C48.1459 2.56294 48.3376 2.26317 48.5863 2.01447C48.835 1.76577 49.1348 1.57406 49.4649 1.45261C49.795 1.33115 50.1475 1.28285 50.4981 1.31103H53.8476V3.57837H51.3677C51.2618 3.56639 51.1546 3.57887 51.0544 3.61485C50.9542 3.65084 50.8635 3.70936 50.7895 3.78591C50.7154 3.86246 50.6599 3.955 50.6273 4.05638C50.5946 4.15776 50.5857 4.26528 50.6011 4.37066V6.77326H54.35V9.07281H50.6011V19.7912H47.8829V9.07281Z" fill="#FCFCFC"/>
<path d="M59.0779 17.1762V9.07305H55.4901V6.7735H59.0779V2.4707H61.7962V6.7735H65.6609V9.07305H61.7962V16.6996C61.7962 17.2278 62.0345 17.4919 62.5369 17.4919H65.2551V19.7914H61.6673C61.318 19.819 60.9669 19.7701 60.6385 19.6481C60.31 19.526 60.0121 19.3338 59.7656 19.0848C59.5191 18.8359 59.3298 18.5361 59.2111 18.2065C59.0923 17.8768 59.0469 17.5252 59.0779 17.1762Z" fill="#FCFCFC"/>
<path d="M4.04997 39.6756V31.5724H0.462158V29.2664H4.04997V24.9636H6.76821V29.2664H10.633V31.566H6.76821V39.1989C6.76821 39.7207 7.00653 39.9848 7.50895 39.9848H10.2272V42.2843H6.63938C6.29067 42.3118 5.94016 42.263 5.61221 42.1414C5.28426 42.0197 4.98674 41.8281 4.74032 41.5798C4.4939 41.3316 4.3045 41.0326 4.18529 40.7038C4.06607 40.3749 4.0199 40.0241 4.04997 39.6756Z" fill="#FCFCFC"/>
<path d="M12.6875 35.9526V35.6369C12.6875 31.5725 15.3542 28.9058 19.1803 28.9058C23.0065 28.9058 25.4606 31.5467 25.4606 35.5081V36.5387H15.4573C15.4497 37.0427 15.5454 37.5429 15.7385 38.0085C15.9316 38.4741 16.2181 38.8952 16.5802 39.2459C16.9423 39.5965 17.3724 39.8693 17.844 40.0473C18.3155 40.2254 18.8186 40.3049 19.3221 40.2811C20.0737 40.3335 20.822 40.1409 21.4549 39.7321C22.0878 39.3233 22.5712 38.7204 22.8326 38.0138L25.0999 39.1732C24.5834 40.2681 23.7524 41.1842 22.713 41.8049C21.6736 42.4255 20.4729 42.7225 19.2641 42.658C15.322 42.658 12.6875 39.9913 12.6875 35.9526ZM22.7166 34.4517C22.562 32.5193 21.1836 31.3084 19.1546 31.3084C18.2514 31.2408 17.3582 31.5335 16.6702 32.1225C15.9822 32.7115 15.5554 33.5489 15.483 34.4517H22.7166Z" fill="#FCFCFC"/>
<path d="M27.0518 35.9526V35.6112C27.0518 31.4114 29.9504 28.9058 33.7315 28.9058C37.5125 28.9058 39.5866 31.1796 40.089 33.9236L37.4481 34.4775C37.4147 34.0301 37.2933 33.5938 37.0909 33.1934C36.8884 32.7931 36.6089 32.4367 36.2684 32.1446C35.9279 31.8526 35.533 31.6306 35.1065 31.4915C34.68 31.3525 34.2302 31.299 33.783 31.3341C31.5092 31.3341 29.7701 32.9187 29.7701 35.6627V35.901C29.7701 38.645 31.5092 40.2296 33.783 40.2296C34.6945 40.3032 35.5984 40.0155 36.2997 39.4287C37.001 38.8418 37.4435 38.0028 37.5318 37.0927L40.1728 37.6982C39.5287 40.4164 37.4803 42.658 33.7315 42.658C29.9826 42.658 27.0518 40.1781 27.0518 35.9526Z" fill="#FCFCFC"/>
<path d="M42.2597 23.8108H44.9779V31.1217H45.3966C45.8991 30.149 47.007 29.0669 49.4933 29.0669C52.4499 29.0669 54.5884 31.1217 54.5884 34.4776V42.2909H51.8701V34.6902C51.8701 32.4164 50.6785 31.3858 48.701 31.3858C46.453 31.3858 44.9779 32.9188 44.9779 35.7143V42.2909H42.2597V23.8108Z" fill="#FCFCFC"/>
<path d="M57.97 29.2665H60.611V31.1989H61.0297C61.5321 30.1426 62.6658 29.0347 65.1779 29.0347C68.1344 29.0347 70.2729 31.0894 70.2729 34.4454V42.2587H67.5547V34.6579C67.5547 32.3841 66.3631 31.3535 64.3856 31.3535C62.1376 31.3535 60.6625 32.8866 60.6625 35.6821V42.2587H57.97V29.2665Z" fill="#FCFCFC"/>
<path d="M73.1779 25.6595C73.1728 25.2877 73.2784 24.9228 73.4812 24.6112C73.684 24.2996 73.9749 24.0553 74.317 23.9095C74.659 23.7636 75.0367 23.7228 75.4019 23.7922C75.7672 23.8616 76.1036 24.038 76.3683 24.2991C76.6331 24.5602 76.8142 24.8941 76.8886 25.2584C76.963 25.6227 76.9275 26.0009 76.7864 26.3449C76.6453 26.6889 76.4051 26.9832 76.0963 27.1904C75.7875 27.3975 75.4241 27.5081 75.0523 27.5081C74.805 27.5208 74.5578 27.4819 74.3263 27.3938C74.0949 27.3057 73.8843 27.1705 73.708 26.9966C73.5317 26.8227 73.3935 26.614 73.3022 26.3838C73.211 26.1536 73.1686 25.9069 73.1779 25.6595ZM73.6803 29.273H76.3985V42.2909H73.6803V29.273Z" fill="#FCFCFC"/>
<path d="M79.2908 35.9526V35.6112C79.2908 31.4114 82.1959 28.9058 85.9705 28.9058C89.7451 28.9058 91.8321 31.1796 92.3281 33.9236L89.6936 34.4775C89.6594 34.0298 89.5372 33.5933 89.3341 33.193C89.131 32.7926 88.8509 32.4362 88.5098 32.1442C88.1688 31.8522 87.7735 31.6304 87.3466 31.4914C86.9197 31.3524 86.4696 31.2989 86.022 31.3341C83.7482 31.3341 82.0091 32.9187 82.0091 35.6627V35.901C82.0091 38.645 83.7482 40.2296 86.022 40.2296C86.9339 40.3049 87.8387 40.0178 88.5404 39.4307C89.2421 38.8435 89.6842 38.0035 89.7709 37.0927L92.4118 37.6982C91.8063 40.4164 89.7193 42.658 85.9705 42.658C82.2216 42.658 79.2908 40.1781 79.2908 35.9526Z" fill="#FCFCFC"/>
<path d="M94.1702 38.542C94.1702 35.901 96.283 34.529 99.13 34.529H103.124V33.6852C103.124 32.1779 102.228 31.1795 100.328 31.1795C98.4279 31.1795 97.5262 32.1522 97.2105 33.5499L94.6791 32.7319C95.3232 30.6771 97.0237 28.9058 100.354 28.9058C103.684 28.9058 105.79 30.7029 105.79 33.872V39.2312C105.79 39.7594 106.054 40.0235 106.531 40.0235H107.633V42.2908H105.571C104.36 42.2908 103.517 41.6016 103.517 40.5195V40.4422H103.124C102.731 41.286 101.777 42.658 99.085 42.658C96.3925 42.658 94.1702 41.1829 94.1702 38.542ZM103.124 36.9059V36.6418H99.3233C97.8675 36.6418 96.9207 37.2859 96.9207 38.4647C96.9207 39.6434 97.8675 40.3971 99.4972 40.3971C101.616 40.4164 103.124 39.0959 103.124 36.9059Z" fill="#FCFCFC"/>
<path d="M110.248 23.8108H112.966V42.2909H110.248V23.8108Z" fill="#FCFCFC"/>
</svg>
